<svg width="147" height="36" viewBox="0 0 147 36" fill="none" xmlns="http://www.w3.org/2000/svg">
<path d="M48 6.021H53.0539C55.2912 6.021 56.9092 7.67252 56.9092 9.46676C56.9092 10.527 56.3898 11.2814 55.8904 11.7503C55.6108 12.0358 55.2712 12.2601 54.8916 12.4232L56.8892 15.8689H54.3323L52.5745 12.9125H50.3971V15.8689H48V6.021ZM52.974 10.6289C53.9328 10.6289 54.4122 10.1396 54.4122 9.48715C54.4122 8.8347 53.9328 8.34536 52.974 8.34536H50.3971V10.6493H52.974V10.6289Z" fill="black"/>
<path d="M58.5073 6.021H66.0382V8.32497H60.9044V9.71143H65.0793V12.0154H60.9044V13.5854H66.0382V15.8893H58.5073V6.021Z" fill="black"/>
<path d="M69.6338 12.831C69.7137 13.0553 69.8335 13.2796 70.0133 13.4631C70.3129 13.7689 70.8523 14.0748 71.7912 14.0748C73.1495 14.0748 73.6289 13.5854 73.6289 13.0961C73.6289 12.5456 72.9298 12.3009 72.0309 12.0766L70.5527 11.7096C68.9945 11.363 67.4564 10.5882 67.4564 8.7328C67.4764 7.26479 68.9746 5.69482 71.7312 5.69482C73.609 5.69482 74.6876 6.46961 75.3069 7.22401C75.6665 7.67257 75.9062 8.16191 76.066 8.7328H73.569C73.5091 8.56969 73.3892 8.42697 73.2494 8.28424C72.9897 8.03957 72.5502 7.81529 71.7312 7.81529C70.4528 7.81529 70.0533 8.22308 70.0533 8.63086C70.0533 9.42603 71.5914 9.65031 73.1495 9.99693C74.6677 10.3843 76.2258 11.1387 76.2258 12.9941C76.2258 14.6456 74.7076 16.1952 71.8111 16.1952C69.6737 16.1952 68.4952 15.3593 67.8559 14.5233C67.4764 14.034 67.2167 13.4631 67.0769 12.831H69.6338Z" fill="black"/>
<path d="M77.7439 6.021H80.141V11.6892C80.141 12.9941 81.0199 13.9116 82.2984 13.9116C83.5768 13.9116 84.4558 13.0145 84.4558 11.6892V6.021H86.8529V11.6892C86.8529 14.3805 85.095 16.1952 82.2784 16.1952C79.4818 16.1952 77.7039 14.3805 77.7039 11.6892V6.021H77.7439Z" fill="black"/>
<path d="M88.8704 6.021H91.2675V13.565H96.2415V15.8689H88.8704V6.021Z" fill="black"/>
<path d="M95.2826 6.021H104.252V8.32497H100.976V15.8689H98.5786V8.32497H95.3026V6.021H95.2826Z" fill="black"/>
<path d="M106.669 6.021H111.403L114.2 15.8689H111.803L111.243 13.8912H106.829L106.269 15.8689H103.872L106.669 6.021ZM110.604 11.6076L109.725 8.32497H108.367L107.468 11.6076H110.604Z" fill="black"/>
<path d="M115.318 6.021H119.254C122.59 6.021 124.707 8.20263 124.707 10.9552C124.707 13.7281 122.59 15.8893 119.274 15.8893H115.318V6.021ZM119.334 13.5854C121.111 13.5854 122.13 12.5251 122.13 10.9552C122.13 9.3852 121.111 8.32497 119.334 8.32497H117.735V13.5854H119.334Z" fill="black"/>
<path d="M131.359 5.69482C134.555 5.69482 136.892 8.08035 136.892 10.9552C136.892 13.8301 134.575 16.2156 131.359 16.2156C128.163 16.2156 125.826 13.8301 125.826 10.9552C125.826 8.08035 128.143 5.69482 131.359 5.69482ZM131.359 13.9116C133.037 13.9116 134.315 12.6067 134.315 10.9552C134.315 9.3037 133.037 7.9988 131.359 7.9988C129.681 7.9988 128.403 9.3037 128.403 10.9552C128.403 12.5863 129.681 13.9116 131.359 13.9116Z" fill="black"/>
<path d="M140.408 12.831C140.488 13.0553 140.608 13.2796 140.788 13.4631C141.087 13.7689 141.626 14.0748 142.565 14.0748C143.924 14.0748 144.403 13.5854 144.403 13.0961C144.403 12.5456 143.704 12.3009 142.805 12.0766L141.327 11.7096C139.769 11.363 138.231 10.5882 138.231 8.7328C138.231 7.26479 139.729 5.69482 142.485 5.69482C144.363 5.69482 145.442 6.46961 146.061 7.22401C146.421 7.67257 146.66 8.16191 146.82 8.7328H144.343C144.283 8.56969 144.163 8.42697 144.024 8.28424C143.764 8.03957 143.324 7.81529 142.505 7.81529C141.227 7.81529 140.827 8.22308 140.827 8.63086C140.827 9.42603 142.366 9.65031 143.924 9.99693C145.442 10.3843 147 11.1387 147 12.9941C147 14.6456 145.482 16.1952 142.585 16.1952C140.448 16.1952 139.269 15.3593 138.63 14.5233C138.251 14.034 137.991 13.4631 137.851 12.831H140.408Z" fill="black"/>
<path d="M48 20.3137H51.9352C55.2712 20.3137 57.3886 22.4954 57.3886 25.2479C57.3886 28.0208 55.2712 30.1821 51.9552 30.1821H48V20.3137ZM52.0151 27.8577C53.793 27.8577 54.8117 26.7975 54.8117 25.2275C54.8117 23.6575 53.793 22.5973 52.0151 22.5973H50.4171V27.8577H52.0151Z" fill="black"/>
<path d="M58.9868 20.3137H61.3838V30.1617H58.9868V20.3137Z" fill="black"/>
<path d="M68.4952 19.9875C70.6326 19.9875 71.951 20.9254 72.7301 21.843C73.1695 22.3935 73.5091 22.9847 73.7488 23.678H71.2718C71.132 23.4129 70.9323 23.1886 70.6925 22.9848C70.2531 22.6381 69.5939 22.2711 68.5352 22.2711C66.8572 22.2711 65.5787 23.576 65.5787 25.2276C65.5787 26.8791 66.8572 28.184 68.5352 28.184C69.5739 28.184 70.2531 27.7762 70.6925 27.3684C70.9323 27.1237 71.132 26.8587 71.2718 26.5528H69.9135V24.7382H75.0473V26.5528H73.7688C73.5491 27.2869 73.2095 27.9393 72.7501 28.5306C71.971 29.5297 70.6326 30.5083 68.5152 30.5083C65.339 30.5083 63.0218 28.1228 63.0218 25.2479C62.9819 22.3527 65.3191 19.9875 68.4952 19.9875Z" fill="black"/>
<path d="M76.1259 20.3137H78.523V30.1617H76.1259V20.3137Z" fill="black"/>
<path d="M79.7416 20.3137H88.7107V22.6177H85.4347V30.1617H83.0376V22.6177H79.7615V20.3137H79.7416Z" fill="black"/>
<path d="M91.1278 20.3137H95.8621L98.6587 30.1617H96.2616L95.7022 28.1839H91.2876L90.7283 30.1617H88.3312L91.1278 20.3137ZM95.043 25.9003L94.1641 22.6177H92.8058L91.9268 25.9003H95.043Z" fill="black"/>
<path d="M99.7772 20.3137H102.174V30.1617H99.7772V20.3137Z" fill="black"/>
<path d="M106.189 27.1237C106.269 27.348 106.389 27.5723 106.569 27.7558C106.869 28.0616 107.408 28.3675 108.347 28.3675C109.705 28.3675 110.185 27.8781 110.185 27.3888C110.185 26.8383 109.485 26.5936 108.587 26.3693L107.108 26.0023C105.55 25.6557 104.012 24.8809 104.012 23.0255C104.012 21.5575 105.51 19.9875 108.267 19.9875C110.145 19.9875 111.223 20.7623 111.843 21.5167C112.202 21.9653 112.442 22.4546 112.602 23.0255H110.125C110.065 22.8624 109.945 22.7197 109.805 22.577C109.545 22.3323 109.106 22.108 108.287 22.108C107.008 22.108 106.609 22.5158 106.609 22.9236C106.609 23.7188 108.147 23.943 109.705 24.2897C111.223 24.677 112.781 25.4314 112.781 27.2869C112.781 28.9384 111.263 30.4879 108.367 30.4879C106.229 30.4879 105.051 29.652 104.412 28.816C104.032 28.3267 103.772 27.7558 103.633 27.1237H106.189Z" fill="black"/>
<g clip-path="url(#clip0_1_37248)">
<path d="M30.9423 13.5073L21.33 29.2389L24.597 36L34.2093 20.2684L30.9423 13.5073Z" fill="#806EFF"/>
<path d="M9.61229 0L0 15.7316L3.26702 22.4926L12.8793 6.76105L9.61229 0Z" fill="#806EFF"/>
<path d="M23.5515 13.5074L27.6753 6.76105L25.0326 1.31097L24.4082 0L16.1463 13.5074L6.53403 29.239L9.80104 36L19.4133 20.2684L18.3388 18.0295L16.1463 13.5074H23.5515Z" fill="#806EFF"/>
<path d="M41.6 20.2684L38.333 13.5073H30.9423L34.2093 20.2684L24.597 36H31.9877L41.6 20.2684Z" fill="black"/>
<path d="M20.27 6.76105L17.003 0H9.61228L12.8793 6.76105L3.26701 22.4926H10.6577L20.27 6.76105Z" fill="black"/>
<path d="M26.8186 20.2684L35.066 6.76105L31.799 0H24.4082L27.6753 6.76105L23.5516 13.5074H16.1463L19.4133 20.2684L9.80105 36H17.2063L25.4537 22.4926L26.8186 20.2684Z" fill="black"/>
</g>
<defs>
<clipPath id="clip0_1_37248">
<rect width="41.6" height="36" fill="white"/>
</clipPath>
</defs>
</svg>
